# xmcd CD database file
#
# Track frame offsets:
#	150
#	22227
#	42250
#	61147
#
# Disc length: 1014 seconds
#
# Revision: 0
# Processed by: cddbd v1.5.1PL0 Copyright (c) Steve Scherf et al.
# Submitted via: CDex 1.51
#
DISCID=2f03f404
DTITLE=SAKURA (丹下桜） - おげんきですか？
DYEAR=2004
DGENRE=Pop
TTITLE0=Be Ambitious!〜ビタミンガール＆ミラクルボーイ〜
TTITLE1=NA・GI・SA
TTITLE2=美ら唄（ちゃらうた）
TTITLE3=ボイス絵本〜おげんきですか？〜
EXTD=YEAR: 2004
EXTT0=
EXTT1=
EXTT2=
EXTT3=
PLAYORDER=
